<?xml version="1.0" encoding="UTF-8"?>
<svg version="1.1" xmlns="http://www.w3.org/2000/svg" width="225" height="225">
<path d="M0 0 C74.25 0 148.5 0 225 0 C225 74.25 225 148.5 225 225 C150.75 225 76.5 225 0 225 C0 150.75 0 76.5 0 0 Z " fill="#FDFEFD" transform="translate(0,0)"/>
<path d="M0 0 C0.66 0 1.32 0 2 0 C7.05647227 10.67263041 11.69055819 21.19616354 8 33.125 C3.88291929 42.42655272 -3.87684332 48.11881272 -13 52 C-38.09031452 60.94648929 -65.79573419 58.81333434 -90 48 C-91.09570312 47.5359375 -92.19140625 47.071875 -93.3203125 46.59375 C-102.19207057 42.57473671 -102.19207057 42.57473671 -104.75 38.5 C-106.04195494 34.88252616 -106.64339879 32.77996791 -106 29 C-103.12820513 23.56410256 -103.12820513 23.56410256 -100.25 22.125 C-99.5075 22.08375 -98.765 22.0425 -98 22 C-96.2984375 21.690625 -96.2984375 21.690625 -94.5625 21.375 C-88.7950622 21.39656052 -84.52024742 25.49028584 -80.08203125 28.75390625 C-62.40756746 41.63453576 -38.79423003 45.52792613 -17.48046875 42.5 C-10.29403869 40.7310326 -4.20959869 37.77616246 0.4375 31.9375 C4.75627349 23.81820585 4.11425981 12.68215853 1.5 4.0625 C1.02165118 2.7005346 0.53066164 1.34244761 0 0 Z " fill="#E42A2C" transform="translate(178,109)"/>
<path d="M0 0 C3.70390021 2.02666238 5.65363011 3.48044516 8 7 C8.32249645 11.41572058 7.66445629 15.0147717 5.1875 18.6875 C1.39143974 21.4415045 -2.58349501 23.31349884 -6.8046875 25.3359375 C-11.95327872 28.01723317 -16.45013385 31.41653953 -21 35 C-21.69738281 35.53109375 -22.39476562 36.0621875 -23.11328125 36.609375 C-34.26018588 45.63412343 -45.04228731 60.77350478 -48 75 C-48.1718388 77.78604211 -48.27636624 80.52538283 -48.3125 83.3125 C-48.34150391 84.04662109 -48.37050781 84.78074219 -48.40039062 85.53710938 C-48.46552434 91.18370166 -47.24900647 94.36429236 -44 99 C-37.04974159 106.06706948 -28.60905161 108.35494792 -19 109 C-19 109.66 -19 110.32 -19 111 C-30.23605933 111.6430813 -40.00693788 110.28009791 -49 103 C-56.3319193 95.6680807 -58.38484885 87.79064648 -58.4375 77.625 C-58.03923512 52.32907171 -44.28405881 31.55014615 -26.77709961 14.2355957 C-10.65030577 -1.08393645 -10.65030577 -1.08393645 0 0 Z " fill="#221F20" transform="translate(106,57)"/>
<path d="M0 0 C7.12937079 4.37836358 12.90222342 9.38956541 18 16 C18.63421875 16.78761719 19.2684375 17.57523438 19.921875 18.38671875 C35.36234525 38.40546797 41.68630478 61.91174744 41 87 C40.34 87 39.68 87 39 87 C38.71125 87.61875 38.4225 88.2375 38.125 88.875 C37 91 37 91 35 93 C31.24962854 93.71257058 27.5228238 93.81804584 24.109375 91.984375 C21.45007997 89.84144794 20.08602816 88.25808447 19 85 C18.95205012 83.26758858 18.96247765 81.53326307 19.0078125 79.80078125 C19.47308234 54.65079597 15.95620076 31.64014315 -1 12 C-3.37492611 10.01956889 -3.37492611 10.01956889 -5.9375 8.3125 C-6.77152344 7.73113281 -7.60554688 7.14976563 -8.46484375 6.55078125 C-14.82011934 2.66319357 -20.65200632 1.97384627 -28 3 C-35.5201952 5.897299 -42.36253082 11.72506165 -46 19 C-46.66 19 -47.32 19 -48 19 C-46.85295593 12.54973919 -41.90176281 6.39259165 -37.0625 2.125 C-36.051875 1.42375 -35.04125 0.7225 -34 0 C-33.46375 -0.39058594 -32.9275 -0.78117187 -32.375 -1.18359375 C-22.84553398 -7.11897237 -9.48308276 -5.02377599 0 0 Z " fill="#17AF4D" transform="translate(128,39)"/>
<path d="M0 0 C1.796875 1.63671875 1.796875 1.63671875 3 3 C2.01 3 1.02 3 0 3 C1.00193437 6.79303725 1.81024227 9.71536341 4 13 C3.625 15.1875 3.625 15.1875 3 17 C2.54625 16.319375 2.0925 15.63875 1.625 14.9375 C-3.65344011 9.03067417 -10.77920466 3.76798121 -18.76171875 2.59375 C-26.71235379 2.33899 -31.83109093 3.93724014 -38 9 C-41.0798164 12.03485558 -44.05451034 15.10902069 -46 19 C-46.66 19 -47.32 19 -48 19 C-46.85295593 12.54973919 -41.90176281 6.39259165 -37.0625 2.125 C-36.051875 1.42375 -35.04125 0.7225 -34 0 C-33.46375 -0.39058594 -32.9275 -0.78117187 -32.375 -1.18359375 C-22.91709019 -7.07440395 -9.42198976 -5.0668614 0 0 Z " fill="#25A957" transform="translate(128,39)"/>
<path d="M0 0 C0.66 0 1.32 0 2 0 C7.05647227 10.67263041 11.69055819 21.19616354 8 33.125 C5.83331443 38.21935338 1.8146114 42.08571942 -2 46 C-2.268125 45.360625 -2.53625 44.72125 -2.8125 44.0625 C-3.88667752 41.66868314 -3.88667752 41.66868314 -7 41 C-7 41.66 -7 42.32 -7 43 C-8.98 43 -10.96 43 -13 43 C-13.33 43.66 -13.66 44.32 -14 45 C-16.31 44.67 -18.62 44.34 -21 44 C-18.46139019 42.62491969 -15.90059683 41.5890713 -13.1875 40.625 C-6.44286033 38.10047007 -1.58120423 35.61145395 2 29 C5.04889651 19.93461437 3.43049155 8.67832684 0 0 Z " fill="#D7363D" transform="translate(178,109)"/>
<path d="M0 0 C2.0625 0.60546875 2.0625 0.60546875 4.125 2.29296875 C5.64662514 6.04631075 5.61816573 9.13692361 4.1875 12.91796875 C3.0625 14.60546875 3.0625 14.60546875 1.0625 15.60546875 C-5.9896327 16.17418913 -5.9896327 16.17418913 -9.4375 14.10546875 C-11.56215211 10.56438191 -11.71962398 7.63134905 -10.9375 3.60546875 C-8.26308539 -1.161966 -4.91162254 -0.81591098 0 0 Z " fill="#15AD4C" transform="translate(176.9375,57.39453125)"/>
<path d="M0 0 C2.875 2.0625 2.875 2.0625 5 5 C5.62491523 8.95779649 5.61006839 11.00863886 3.5 14.4375 C-0.24892004 16.78057502 -2.61035762 16.48773804 -7 16 C-8.9375 14.9375 -8.9375 14.9375 -10 13 C-11.02737671 9.03726124 -11.40572469 6.88873027 -9.6875 3.125 C-6.8548261 -0.44207084 -4.42393882 -0.52046339 0 0 Z " fill="#DB3033" transform="translate(126,174)"/>
<path d="M0 0 C4.0743356 0.84881992 5.54405875 2.30225596 8 5.625 C8.70960213 9.40954468 8.27801176 11.09214413 6.5 14.5 C3.85528897 16.74800438 3.23504139 16.99139795 -0.0625 17.125 C-4 16.625 -4 16.625 -5.9375 15.25 C-8.13375621 11.89101991 -8.47365946 9.65110542 -8 5.625 C-5.54405875 2.30225596 -4.0743356 0.84881992 0 0 Z " fill="#201E1F" transform="translate(46,73.375)"/>
<path d="M0 0 C1.0621875 0.15339844 2.124375 0.30679688 3.21875 0.46484375 C8.96097142 1.18262143 14.72098415 1.3516627 20.5 1.5625 C22.16289062 1.62727539 22.16289062 1.62727539 23.859375 1.69335938 C26.57281506 1.79862214 29.28633417 1.90075846 32 2 C32 3.32 32 4.64 32 6 C31.01 6 30.02 6 29 6 C29.495 6.99 29.495 6.99 30 8 C25.07262981 9.97094808 21.21979128 10.1799928 16 10 C16.99 9.34 17.98 8.68 19 8 C18.44014404 8.0407666 17.88028809 8.0815332 17.3034668 8.12353516 C14.76545854 8.30198269 12.22665122 8.46366765 9.6875 8.625 C8.36588867 8.72167969 8.36588867 8.72167969 7.01757812 8.8203125 C6.17001953 8.871875 5.32246094 8.9234375 4.44921875 8.9765625 C3.27879028 9.05511475 3.27879028 9.05511475 2.0847168 9.13525391 C0 9 0 9 -3 7 C-0.36 6.67 2.28 6.34 5 6 C5 5.34 5 4.68 5 4 C3.35 3.67 1.7 3.34 0 3 C0 2.01 0 1.02 0 0 Z " fill="#E9272A" transform="translate(128,154)"/>
<path d="M0 0 C0.66 0 1.32 0 2 0 C7.12147055 10.80982143 11.26603888 20.64398164 8 32.6875 C7.67 33.450625 7.34 34.21375 7 35 C5.5 33.625 5.5 33.625 4 32 C4 31.34 4 30.68 4 30 C3.34 29.67 2.68 29.34 2 29 C2.15984375 28.48695313 2.3196875 27.97390625 2.484375 27.4453125 C4.40897469 18.31804426 3.40450441 8.61258557 0 0 Z " fill="#D73D3F" transform="translate(178,109)"/>
<path d="M0 0 C0 0.33 0 0.66 0 1 C-2.31 1.33 -4.62 1.66 -7 2 C-4.525 2.495 -4.525 2.495 -2 3 C-2 3.33 -2 3.66 -2 4 C-3.98 4 -5.96 4 -8 4 C-8 4.66 -8 5.32 -8 6 C-10.70879335 7.35439668 -13.00933268 7.06501451 -16 7 C-16.33 7.99 -16.66 8.98 -17 10 C-17.33 9.34 -17.66 8.68 -18 8 C-19.32 8.33 -20.64 8.66 -22 9 C-22 9.66 -22 10.32 -22 11 C-22.66 11 -23.32 11 -24 11 C-24.33 11.66 -24.66 12.32 -25 13 C-25.66 12.34 -26.32 11.68 -27 11 C-17.89023632 2.47730998 -12.62564055 -0.55160566 0 0 Z " fill="#ECF9F2" transform="translate(112,41)"/>
<path d="M0 0 C0.66 0.33 1.32 0.66 2 1 C2 1.33 2 1.66 2 2 C2.886875 1.814375 3.77375 1.62875 4.6875 1.4375 C7.85178811 1.01957516 9.94839642 1.19222258 13 2 C13 2.33 13 2.66 13 3 C11.081875 3.061875 11.081875 3.061875 9.125 3.125 C0.19640769 4.1498227 -6.17232491 9.52686977 -11.72265625 16.265625 C-13.06045428 17.97898 -13.06045428 17.97898 -14 20 C-14.66 20 -15.32 20 -16 20 C-14.61213446 12.19550935 -8.23257826 5.4932541 -2 1 C-1.34 0.67 -0.68 0.34 0 0 Z " fill="#2CA75B" transform="translate(96,38)"/>
<path d="M0 0 C0.66 0 1.32 0 2 0 C2 7.92 2 15.84 2 24 C1.34 24 0.68 24 0 24 C-0.12375 24.928125 -0.12375 24.928125 -0.25 25.875 C-1 28 -1 28 -2.69921875 29.15234375 C-5.56037979 30.20645571 -7.54311541 30.02846452 -10.5625 29.6875 C-11.51253906 29.58824219 -12.46257812 29.48898438 -13.44140625 29.38671875 C-16 29 -16 29 -19 28 C-19.33 26.35 -19.66 24.7 -20 23 C-19.195625 23.66 -18.39125 24.32 -17.5625 25 C-14.11440652 27.28507858 -11.13853281 27.63067018 -7.05078125 27.47265625 C-4.67779354 27.12044617 -4.67779354 27.12044617 -2.5625 24.5 C-1.7890625 23.2625 -1.7890625 23.2625 -1 22 C-0.34 22 0.32 22 1 22 C0.67 14.74 0.34 7.48 0 0 Z " fill="#D3F6DF" transform="translate(168,104)"/>
<path d="M0 0 C2.475 0.99 2.475 0.99 5 2 C5 2.66 5 3.32 5 4 C14.57 3.67 24.14 3.34 34 3 C34 3.33 34 3.66 34 4 C18.84238702 7.45885395 0.96422946 5.84990896 -14 2 C-14 1.67 -14 1.34 -14 1 C-13.07316406 1.01160156 -12.14632812 1.02320313 -11.19140625 1.03515625 C-9.39509766 1.04869141 -9.39509766 1.04869141 -7.5625 1.0625 C-5.77005859 1.07990234 -5.77005859 1.07990234 -3.94140625 1.09765625 C-1.11126659 1.33901792 -1.11126659 1.33901792 0 0 Z " fill="#C93F43" transform="translate(118,161)"/>
<path d="M0 0 C7.50769231 -0.36923077 7.50769231 -0.36923077 10 1.5 C10.495 2.2425 10.495 2.2425 11 3 C11 2.01 11 1.02 11 0 C12.98 0 14.96 0 17 0 C15.68 1.32 14.36 2.64 13 4 C18.445 4.495 18.445 4.495 24 5 C24 5.66 24 6.32 24 7 C24.99 7.33 25.98 7.66 27 8 C17.15252108 7.95827339 8.96422781 4.67792032 0 1 C0 0.67 0 0.34 0 0 Z M19 2 C19.99 2.495 19.99 2.495 21 3 C20.01 3.495 20.01 3.495 19 4 C19 3.34 19 2.68 19 2 Z " fill="#F8ECE8" transform="translate(109,144)"/>
<path d="M0 0 C0.33 0 0.66 0 1 0 C1.12117188 0.72445312 1.24234375 1.44890625 1.3671875 2.1953125 C2.24939579 7.28497573 3.16442347 12.14883346 5 17 C3.68 17.33 2.36 17.66 1 18 C0.67 17.34 0.34 16.68 0 16 C-0.639375 15.7525 -1.27875 15.505 -1.9375 15.25 C-4.9127423 13.44682285 -5.14907937 11.2618624 -6 8 C-4.0625 7.4375 -4.0625 7.4375 -2 7 C-1.67 7.33 -1.34 7.66 -1 8 C-0.67 5.36 -0.34 2.72 0 0 Z " fill="#1E1C1D" transform="translate(55,138)"/>
<path d="M0 0 C2.0234375 0.65234375 2.0234375 0.65234375 4.0234375 3.65234375 C3.0334375 3.65234375 2.0434375 3.65234375 1.0234375 3.65234375 C1.0234375 2.99234375 1.0234375 2.33234375 1.0234375 1.65234375 C-1.2865625 1.65234375 -3.5965625 1.65234375 -5.9765625 1.65234375 C-4.6565625 2.64234375 -3.3365625 3.63234375 -1.9765625 4.65234375 C-2.9459375 4.89984375 -3.9153125 5.14734375 -4.9140625 5.40234375 C-6.43 6.02109375 -6.43 6.02109375 -7.9765625 6.65234375 C-8.79102359 8.65807016 -8.79102359 8.65807016 -8.9765625 10.65234375 C-9.9665625 11.14734375 -9.9665625 11.14734375 -10.9765625 11.65234375 C-11.45324644 4.50208468 -11.45324644 4.50208468 -9.5390625 1.08984375 C-6.13069305 -0.82216838 -3.79936875 -0.46072079 0 0 Z " fill="#2FAD5F" transform="translate(176.9765625,57.34765625)"/>
<path d="M0 0 C-0.99 1.485 -0.99 1.485 -2 3 C-0.68 3.99 0.64 4.98 2 6 C2.99 5.34 3.98 4.68 5 4 C5.12375 5.1446875 5.12375 5.1446875 5.25 6.3125 C6.14615794 9.52373261 7.21611025 10.29374499 10 12 C9.34 13.32 8.68 14.64 8 16 C6.5 14.625 6.5 14.625 5 13 C5 12.34 5 11.68 5 11 C4.360625 10.731875 3.72125 10.46375 3.0625 10.1875 C1 9 1 9 0 6 C-1.3153341 5.29848848 -2.65117592 4.63474075 -4 4 C-5.75 2.375 -5.75 2.375 -7 1 C-3.375 -1.125 -3.375 -1.125 0 0 Z " fill="#DFF4EB" transform="translate(139,41)"/>
<path d="M0 0 C2.475 0.99 2.475 0.99 5 2 C4.01 2.33 3.02 2.66 2 3 C3.00193437 6.79303725 3.81024227 9.71536341 6 13 C5.625 15.1875 5.625 15.1875 5 17 C4.2265625 15.9171875 4.2265625 15.9171875 3.4375 14.8125 C0.56617403 11.49943158 -2.3706338 9.44284263 -6 7 C-2.98968256 6.06576355 -2.13349732 5.95550089 1 7 C0.67 4.69 0.34 2.38 0 0 Z " fill="#2BAC5D" transform="translate(126,39)"/>
<path d="M0 0 C4.62 0.66 9.24 1.32 14 2 C13.01 2.66 12.02 3.32 11 4 C10.7497843 7.08365871 10.7497843 7.08365871 11 10 C9.35 10.33 7.7 10.66 6 11 C6 8.69 6 6.38 6 4 C4.02 3.01 2.04 2.02 0 1 C0 0.67 0 0.34 0 0 Z " fill="#F8F0ED" transform="translate(106,163)"/>
<path d="M0 0 C0.81791016 0.30744141 0.81791016 0.30744141 1.65234375 0.62109375 C7.15432765 2.58675979 12.1764819 3.53781602 18 4 C18 4.66 18 5.32 18 6 C4.3667426 6.3690205 4.3667426 6.3690205 -2 4 C-1.34 2.68 -0.68 1.36 0 0 Z " fill="#2C2C2C" transform="translate(69,162)"/>
<path d="M0 0 C3.78834782 7.57669565 5.48737727 15.55212734 5 24 C4.34 24 3.68 24 3 24 C2.22157062 20.59437148 1.90021879 17.49234244 2 14 C1.34 13.67 0.68 13.34 0 13 C0 8.71 0 4.42 0 0 Z " fill="#23A955" transform="translate(163,88)"/>
<path d="M0 0 C1.8871875 0.0309375 1.8871875 0.0309375 3.8125 0.0625 C4.1425 2.3725 4.4725 4.6825 4.8125 7.0625 C1.4375 6.75 1.4375 6.75 -2.1875 6.0625 C-2.8475 5.0725 -3.5075 4.0825 -4.1875 3.0625 C-5.1775 2.4025 -6.1675 1.7425 -7.1875 1.0625 C-4.43671116 0.14557039 -2.82801087 -0.04636083 0 0 Z " fill="#12AE49" transform="translate(122.1875,38.9375)"/>
<path d="M0 0 C3.63 0 7.26 0 11 0 C10.01 0.99 9.02 1.98 8 3 C8.99 3 9.98 3 11 3 C11 3.66 11 4.32 11 5 C10.21496094 4.91621094 9.42992188 4.83242188 8.62109375 4.74609375 C2.85389441 4.18706461 -2.31162979 3.83646973 -8 5 C-6.8125 3.5 -6.8125 3.5 -5 2 C-2.3125 1.8125 -2.3125 1.8125 0 2 C0 1.34 0 0.68 0 0 Z " fill="#12AB4B" transform="translate(103,36)"/>
<path d="M0 0 C0 1.32 0 2.64 0 4 C0.99 4.33 1.98 4.66 3 5 C0.3197782 6.3401109 -0.91785869 5.40671684 -3.6484375 4.546875 C-8.66193297 3.38094582 -13.8737127 3.2929307 -19 3 C-19 2.34 -19 1.68 -19 1 C-16.58343806 0.83168225 -14.16676951 0.66528738 -11.75 0.5 C-11.06808594 0.45230469 -10.38617188 0.40460937 -9.68359375 0.35546875 C-6.44268497 0.13521281 -3.2506634 0 0 0 Z " fill="#C6ECD4" transform="translate(123,32)"/>
<path d="M0 0 C1.32 0.33 2.64 0.66 4 1 C3.54625 1.433125 3.0925 1.86625 2.625 2.3125 C0.60906664 4.40596926 -0.91184292 6.07787691 -1.1953125 9.04296875 C-1.17210938 9.75066406 -1.14890625 10.45835937 -1.125 11.1875 C-1.08375 12.445625 -1.0425 13.70375 -1 15 C-0.34 15 0.32 15 1 15 C1 15.99 1 16.98 1 18 C1.99 18 2.98 18 4 18 C4 18.66 4 19.32 4 20 C2.25 19.9375 2.25 19.9375 0 19 C-3.07410923 14.64501192 -4.92812739 11.45274843 -4 6 C-2 2.625 -2 2.625 0 0 Z " fill="#CD474C" transform="translate(76,132)"/>
<path d="M0 0 C3.4180305 1.1393435 4.00348178 1.97410915 6.0625 4.8125 C6.56910156 5.49957031 7.07570312 6.18664063 7.59765625 6.89453125 C8.91619283 8.87417253 9.98998171 10.84948259 11 13 C6.125 12.125 6.125 12.125 5 11 C3 8 3 8 3 6 C2.01 5.67 1.02 5.34 0 5 C0 4.34 0 3.68 0 3 C-0.66 2.67 -1.32 2.34 -2 2 C-1.34 2 -0.68 2 0 2 C0 1.34 0 0.68 0 0 Z " fill="#D9F4E2" transform="translate(125,50)"/>
<path d="M0 0 C1.485 0.99 1.485 0.99 3 2 C2.34 2 1.68 2 1 2 C1.433125 2.92619141 1.433125 2.92619141 1.875 3.87109375 C4.52915627 9.92588775 5.42566425 14.40220409 5 21 C4.67 21 4.34 21 4 21 C4 18.36 4 15.72 4 13 C3.01 13 2.02 13 1 13 C-1.42857143 4.57142857 -1.42857143 4.57142857 0 0 Z " fill="#F7E7E6" transform="translate(177,107)"/>
<path d="M0 0 C0.66 0.33 1.32 0.66 2 1 C1.01 1.33 0.02 1.66 -1 2 C-1 2.99 -1 3.98 -1 5 C-3.26838256 5.38955051 -5.53984687 5.76119129 -7.8125 6.125 C-9.07707031 6.33382812 -10.34164062 6.54265625 -11.64453125 6.7578125 C-15 7 -15 7 -18 5 C-16.95199219 4.72285156 -15.90398437 4.44570312 -14.82421875 4.16015625 C-13.44529933 3.79432048 -12.0663938 3.42843233 -10.6875 3.0625 C-9.65206055 2.78889648 -9.65206055 2.78889648 -8.59570312 2.50976562 C-5.70112156 1.7406739 -2.84215271 0.94738424 0 0 Z " fill="#F4DFDB" transform="translate(165,160)"/>
<path d="M0 0 C0.33 0 0.66 0 1 0 C1.99 3.96 2.98 7.92 4 12 C4.99 12 5.98 12 7 12 C7.33 13.32 7.66 14.64 8 16 C4.6470016 14.82191948 2.2447471 13.80593388 0 11 C-1.16461426 7.50615721 -1.13568319 4.66344611 -1 1 C-0.67 0.67 -0.34 0.34 0 0 Z " fill="#2AA95E" transform="translate(148,116)"/>
<path d="M0 0 C8.91 0.66 17.82 1.32 27 2 C22.75197923 4.12401038 19.83238937 4.2376107 15.25 4.125 C14.55261719 4.11597656 13.85523438 4.10695312 13.13671875 4.09765625 C11.42433042 4.07419888 9.71211996 4.03833104 8 4 C8 3.34 8 2.68 8 2 C5.36 1.67 2.72 1.34 0 1 C0 0.67 0 0.34 0 0 Z " fill="#CC373F" transform="translate(125,151)"/>
<path d="M0 0 C0.66 0 1.32 0 2 0 C2.66 1.65 3.32 3.3 4 5 C0.25 8 0.25 8 -2 8 C-2 8.66 -2 9.32 -2 10 C-2.66 10 -3.32 10 -4 10 C-3.29445932 6.33118845 -1.72264494 3.29549466 0 0 Z " fill="#E22629" transform="translate(180,139)"/>
<path d="M0 0 C3.9968612 2.16972465 6.87428553 4.70977424 10 8 C10.598125 8.598125 11.19625 9.19625 11.8125 9.8125 C12.204375 10.204375 12.59625 10.59625 13 11 C12.67 11.99 12.34 12.98 12 14 C11.34 14 10.68 14 10 14 C8.92474806 11.34771188 7.90543849 8.71631546 7 6 C5.67203709 5.64587656 4.33783393 5.31478446 3 5 C1.25 3.5625 1.25 3.5625 0 2 C0 1.34 0 0.68 0 0 Z " fill="#26A558" transform="translate(131,42)"/>
<path d="M0 0 C2.86867231 1.38264837 5.56024032 2.92148553 8.25 4.625 C8.95640625 5.07101563 9.6628125 5.51703125 10.390625 5.9765625 C10.92171875 6.31429687 11.4528125 6.65203125 12 7 C8.29218328 8.23593891 7.32489747 7.5678132 3.8125 6.0625 C2.91144531 5.68222656 2.01039062 5.30195313 1.08203125 4.91015625 C0.05142578 4.45962891 0.05142578 4.45962891 -1 4 C-0.67 2.68 -0.34 1.36 0 0 Z " fill="#D1363B" transform="translate(92,135)"/>
<path d="M0 0 C0.67578125 1.703125 0.67578125 1.703125 1 4 C-0.14453125 6.359375 -0.14453125 6.359375 -1.8125 8.75 C-2.62654297 9.94882812 -2.62654297 9.94882812 -3.45703125 11.171875 C-3.96621094 11.77515625 -4.47539063 12.3784375 -5 13 C-5.66 13 -6.32 13 -7 13 C-6.36610765 9.50155614 -4.94822306 7.15913124 -2.9375 4.25 C-2.38964844 3.45078125 -1.84179688 2.6515625 -1.27734375 1.828125 C-0.85582031 1.22484375 -0.43429688 0.6215625 0 0 Z " fill="#4EA774" transform="translate(87,45)"/>
<path d="M0 0 C0.33 0.66 0.66 1.32 1 2 C1.928125 1.79375 2.85625 1.5875 3.8125 1.375 C7 1 7 1 10 3 C10 3.99 10 4.98 10 6 C1.42857143 4.14285714 1.42857143 4.14285714 -2 1 C-1.34 0.67 -0.68 0.34 0 0 Z " fill="#D33E43" transform="translate(88,154)"/>
<path d="M0 0 C0.99 1.32 1.98 2.64 3 4 C2.01 4.495 2.01 4.495 1 5 C1.33 6.65 1.66 8.3 2 10 C0.02 10.99 0.02 10.99 -2 12 C-1.34 8.04 -0.68 4.08 0 0 Z " fill="#2B2A2A" transform="translate(50,116)"/>
<path d="M0 0 C0.99 0.33 1.98 0.66 3 1 C0.03 5.95 0.03 5.95 -3 11 C-4.09658936 7.71023192 -3.79953138 6.28696233 -3 3 C-2.34 3 -1.68 3 -1 3 C-0.67 2.01 -0.34 1.02 0 0 Z " fill="#E5F7EC" transform="translate(85,43)"/>
<path d="M0 0 C1 2 1 2 0.6875 4.0625 C0 6 0 6 -2 7 C-2.33 7.99 -2.66 8.98 -3 10 C-4.32 9.34 -5.64 8.68 -7 8 C-4.69 5.36 -2.38 2.72 0 0 Z " fill="#F3E9E1" transform="translate(183,146)"/>
<path d="M0 0 C1.32 0.66 2.64 1.32 4 2 C4 4 4 6 4 8 C2.35 7.67 0.7 7.34 -1 7 C-0.67 6.34 -0.34 5.68 0 5 C-0.99 4.34 -1.98 3.68 -3 3 C-2.01 2.01 -1.02 1.02 0 0 Z " fill="#E13637" transform="translate(108,144)"/>
<path d="M0 0 C1.36959468 3.11271517 0.90994332 4.25666155 -0.25 7.5625 C-1.67358443 10.35882656 -2.6120352 12.06688563 -5 14 C-5.125 11.625 -5.125 11.625 -5 9 C-4.34 8.34 -3.68 7.68 -3 7 C-1.96157435 4.68351201 -0.9578025 2.35096976 0 0 Z " fill="#F4E7E1" transform="translate(181,130)"/>
<path d="M0 0 C4 2 4 2 5.25 4.625 C5.4975 5.40875 5.745 6.1925 6 7 C4.02 7.99 4.02 7.99 2 9 C1.34 6.03 0.68 3.06 0 0 Z " fill="#F6E2E0" transform="translate(129,176)"/>
<path d="M0 0 C0 0.99 0 1.98 0 3 C-1.98567708 2.93489583 -3.97135417 2.86979167 -5.95703125 2.8046875 C-8.31359719 2.86745538 -8.31359719 2.86745538 -11 5 C-11.66 5.99 -12.32 6.98 -13 8 C-13.33 6.68 -13.66 5.36 -14 4 C-13.34 4 -12.68 4 -12 4 C-12 3.34 -12 2.68 -12 2 C-10.37548581 1.66430703 -8.75037083 1.3315204 -7.125 1 C-6.22007813 0.814375 -5.31515625 0.62875 -4.3828125 0.4375 C-2 0 -2 0 0 0 Z " fill="#F4E5DC" transform="translate(128,172)"/>
<path d="M0 0 C0.66 0.66 1.32 1.32 2 2 C1.2884375 2.495 1.2884375 2.495 0.5625 3 C-1.85791615 6.09813267 -1.68198917 9.12026792 -2 13 C-2.66 13 -3.32 13 -4 13 C-4.33 11.35 -4.66 9.7 -5 8 C-4.34 8 -3.68 8 -3 8 C-3.061875 7.05125 -3.12375 6.1025 -3.1875 5.125 C-3.125625 4.09375 -3.06375 3.0625 -3 2 C-2.01 1.34 -1.02 0.68 0 0 Z " fill="#DAF4E6" transform="translate(168,56)"/>
<path d="M0 0 C0.33 0 0.66 0 1 0 C1.66 4.62 2.32 9.24 3 14 C2.67 13.34 2.34 12.68 2 12 C0.68 12 -0.64 12 -2 12 C-1.34 8.04 -0.68 4.08 0 0 Z " fill="#161515" transform="translate(55,138)"/>
<path d="M0 0 C0.66 0.33 1.32 0.66 2 1 C1.67 1.33 1.34 1.66 1 2 C1.66 2.66 2.32 3.32 3 4 C2.67 4.99 2.34 5.98 2 7 C-0.97 5.35 -3.94 3.7 -7 2 C-5 1 -5 1 -2 1 C-1.34 0.67 -0.68 0.34 0 0 Z " fill="#F5DDDD" transform="translate(105,137)"/>
<path d="M0 0 C0.33 0 0.66 0 1 0 C1.95261487 4.76307437 2.08333357 9.1666528 2 14 C1.34 14 0.68 14 0 14 C-1.39151652 9.20699867 -0.68662689 4.84864218 0 0 Z " fill="#2AAB5E" transform="translate(166,98)"/>
<path d="M0 0 C1.32 0.33 2.64 0.66 4 1 C4.12375 2.134375 4.2475 3.26875 4.375 4.4375 C4.684375 6.2009375 4.684375 6.2009375 5 8 C5.66 8.33 6.32 8.66 7 9 C6.67 10.32 6.34 11.64 6 13 C4.02 8.71 2.04 4.42 0 0 Z " fill="#2BA557" transform="translate(135,61)"/>
<path d="M0 0 C1.61648437 0.04060547 1.61648437 0.04060547 3.265625 0.08203125 C4.08546875 0.11683594 4.9053125 0.15164062 5.75 0.1875 C5.75 0.5175 5.75 0.8475 5.75 1.1875 C3.69921875 1.41536458 1.6484375 1.64322917 -0.40234375 1.87109375 C-2.26140229 2.00636614 -2.26140229 2.00636614 -3.25 3.1875 C-5.58297433 3.22842937 -7.91705225 3.22991723 -10.25 3.1875 C-6.86416198 0.05642164 -4.53890538 -0.14800778 0 0 Z " fill="#D1F4DD" transform="translate(106.25,40.8125)"/>
<path d="M0 0 C4.455 1.98 4.455 1.98 9 4 C8.34 4.66 7.68 5.32 7 6 C4.84365964 6 3.07553648 5.5534764 1 5 C0.67 3.35 0.34 1.7 0 0 Z " fill="#F4EEE7" transform="translate(81,153)"/>
<path d="M0 0 C-0.99 1.485 -0.99 1.485 -2 3 C-0.68 4.32 0.64 5.64 2 7 C1.67 7.66 1.34 8.32 1 9 C0.67 8.01 0.34 7.02 0 6 C-1.3153341 5.29848848 -2.65117592 4.63474075 -4 4 C-5.75 2.375 -5.75 2.375 -7 1 C-3.375 -1.125 -3.375 -1.125 0 0 Z " fill="#CFF0DB" transform="translate(139,41)"/>
<path d="M0 0 C2.64 0.33 5.28 0.66 8 1 C4.39948847 3.40034102 1.03855465 5.32187705 -3.375 4.625 C-3.91125 4.41875 -4.4475 4.2125 -5 4 C-4.360625 3.71125 -3.72125 3.4225 -3.0625 3.125 C-0.84793921 2.17176549 -0.84793921 2.17176549 0 0 Z " fill="#CB3234" transform="translate(157,159)"/>
<path d="M0 0 C0.66 0 1.32 0 2 0 C2.67154933 1.28913487 3.33708859 2.58140204 4 3.875 C4.37125 4.59429687 4.7425 5.31359375 5.125 6.0546875 C6 8 6 8 6 10 C5.01 10 4.02 10 3 10 C2.01 6.7 1.02 3.4 0 0 Z " fill="#B9484E" transform="translate(178,109)"/>
<path d="M0 0 C5.53846154 -0.36923077 5.53846154 -0.36923077 7.875 1.5 C8.24625 1.995 8.6175 2.49 9 3 C6.525 4.485 6.525 4.485 4 6 C3.34 5.34 2.68 4.68 2 4 C2.66 3.67 3.32 3.34 4 3 C4 2.34 4 1.68 4 1 C2.68 0.67 1.36 0.34 0 0 Z " fill="#292728" transform="translate(43,74)"/>
<path d="M0 0 C1.32 0.66 2.64 1.32 4 2 C4 3.98 4 5.96 4 8 C3.01 7.67 2.02 7.34 1 7 C1 6.34 1 5.68 1 5 C0.34 5 -0.32 5 -1 5 C-0.67 3.35 -0.34 1.7 0 0 Z " fill="#EDF9F4" transform="translate(121,47)"/>
<path d="M0 0 C0.66 0 1.32 0 2 0 C2.33 0.66 2.66 1.32 3 2 C5.02463255 2.65213292 5.02463255 2.65213292 7 3 C7 3.66 7 4.32 7 5 C5.865625 5.12375 4.73125 5.2475 3.5625 5.375 C1.7990625 5.684375 1.7990625 5.684375 0 6 C-0.33 6.66 -0.66 7.32 -1 8 C-1 7.01 -1 6.02 -1 5 C-0.34 5 0.32 5 1 5 C0.67 3.35 0.34 1.7 0 0 Z " fill="#F4F9F7" transform="translate(116,168)"/>
<path d="M0 0 C0.845625 0.639375 1.69125 1.27875 2.5625 1.9375 C5.90728565 4.1966273 8.97396992 4.67791759 13 5 C13 5.33 13 5.66 13 6 C11.56260487 6.02712066 10.12506137 6.04645067 8.6875 6.0625 C7.48673828 6.07990234 7.48673828 6.07990234 6.26171875 6.09765625 C4 6 4 6 1 5 C0.67 3.35 0.34 1.7 0 0 Z " fill="#CCF2D8" transform="translate(148,127)"/>
<path d="M0 0 C0.66 0 1.32 0 2 0 C1.67 0.99 1.34 1.98 1 3 C0.34 2.34 -0.32 1.68 -1 1 C-0.67 0.67 -0.34 0.34 0 0 Z M-3 2 C-2.34 2.33 -1.68 2.66 -1 3 C-1.8125 4.9375 -1.8125 4.9375 -3 7 C-3.99 7.33 -4.98 7.66 -6 8 C-6.66 7.34 -7.32 6.68 -8 6 C-6.35 4.68 -4.7 3.36 -3 2 Z " fill="#E6E6E6" transform="translate(93,85)"/>
<path d="M0 0 C2.95183101 2.95183101 3.08663988 5.95511947 4 10 C2 10 2 10 0.3125 8.375 C-1.43013159 5.22166664 -0.8539524 3.41580961 0 0 Z " fill="#DCF0E4" transform="translate(140,72)"/>
<path d="M0 0 C0.33 0 0.66 0 1 0 C1.31263383 6.87794433 1.31263383 6.87794433 -1 10 C-3.125 10.75 -3.125 10.75 -5 11 C-5 10.01 -5 9.02 -5 8 C-4.34 8 -3.68 8 -3 8 C-2.01 5.36 -1.02 2.72 0 0 Z " fill="#32A55E" transform="translate(181,62)"/>
<path d="M0 0 C0.33 0 0.66 0 1 0 C1 1.98 1 3.96 1 6 C0.34 6 -0.32 6 -1 6 C-1 6.99 -1 7.98 -1 9 C-1.66 9 -2.32 9 -3 9 C-3 6.69 -3 4.38 -3 2 C-2.01 2.495 -2.01 2.495 -1 3 C-0.67 2.01 -0.34 1.02 0 0 Z " fill="#22AA51" transform="translate(150,90)"/>
<path d="M0 0 C-1.75 3.875 -1.75 3.875 -4 5 C-4.66 3.35 -5.32 1.7 -6 0 C-3.50907189 -1.24546405 -2.58919267 -0.7767578 0 0 Z " fill="#EAF5EB" transform="translate(159,65)"/>
<path d="M0 0 C-0.25 1.875 -0.25 1.875 -1 4 C-3.0625 5.25 -3.0625 5.25 -5 6 C-5.66 5.34 -6.32 4.68 -7 4 C-2.25 0 -2.25 0 0 0 Z " fill="#E0F4E7" transform="translate(168,128)"/>
<path d="M0 0 C0.66 0.33 1.32 0.66 2 1 C2 2.98 2 4.96 2 7 C1.01 7.33 0.02 7.66 -1 8 C-1.625 5.125 -1.625 5.125 -2 2 C-1.34 1.34 -0.68 0.68 0 0 Z " fill="#E6F3ED" transform="translate(165,84)"/>
<path d="M0 0 C0 0.99 0 1.98 0 3 C-1.98 3.66 -3.96 4.32 -6 5 C-6 3.68 -6 2.36 -6 1 C-4.02 0.67 -2.04 0.34 0 0 Z " fill="#D0F0DA" transform="translate(178,72)"/>
<path d="M0 0 C0.66 0.33 1.32 0.66 2 1 C1 3 0 5 -1 7 C-1.99 7 -2.98 7 -4 7 C-4 4 -4 4 -2 1.8125 C-1.34 1.214375 -0.68 0.61625 0 0 Z " fill="#DB333B" transform="translate(182,143)"/>
<path d="M0 0 C0.66 0 1.32 0 2 0 C1.39009109 3.55780196 0.4216319 6.6828589 -1 10 C-2.16553292 6.50340123 -1.77297578 4.55568859 -1 1 C-0.67 0.67 -0.34 0.34 0 0 Z " fill="#191516" transform="translate(59,120)"/>
<path d="M0 0 C0.33 0.99 0.66 1.98 1 3 C0 4.5625 0 4.5625 -2 6 C-4.76614782 5.96726452 -7.26030547 5.49404328 -10 5 C-10 4.67 -10 4.34 -10 4 C-9.04287109 3.81824219 -9.04287109 3.81824219 -8.06640625 3.6328125 C-7.24011719 3.46523437 -6.41382812 3.29765625 -5.5625 3.125 C-4.73878906 2.96257812 -3.91507812 2.80015625 -3.06640625 2.6328125 C-2.38449219 2.42398438 -1.70257813 2.21515625 -1 2 C-0.67 1.34 -0.34 0.68 0 0 Z " fill="#F4CDCD" transform="translate(130,186)"/>
<path d="M0 0 C-0.33 0.99 -0.66 1.98 -1 3 C-3.4375 2.625 -3.4375 2.625 -6 2 C-6.33 1.34 -6.66 0.68 -7 0 C-3.86650268 -1.04449911 -3.01031744 -0.93423645 0 0 Z " fill="#171717" transform="translate(69,162)"/>
<path d="M0 0 C2.31 0.33 4.62 0.66 7 1 C7.33 1.99 7.66 2.98 8 4 C7.01 4.495 7.01 4.495 6 5 C3.98079663 3.69593116 1.98075027 2.36176581 0 1 C0 0.67 0 0.34 0 0 Z " fill="#F3E1D9" transform="translate(88,131)"/>
<path d="M0 0 C0.99 0.33 1.98 0.66 3 1 C3.6875 3.3125 3.6875 3.3125 4 6 C3.01 6.99 2.02 7.98 1 9 C0.67 6.03 0.34 3.06 0 0 Z " fill="#C72C2F" transform="translate(182,119)"/>
<path d="M0 0 C0.33 2.31 0.66 4.62 1 7 C0.34 6.01 -0.32 5.02 -1 4 C-1.99 4 -2.98 4 -4 4 C-4 3.01 -4 2.02 -4 1 C-2 0 -2 0 0 0 Z " fill="#191718" transform="translate(53,77)"/>
<path d="M0 0 C0.99 0.33 1.98 0.66 3 1 C3 2.65 3 4.3 3 6 C2.01 5.67 1.02 5.34 0 5 C0 4.34 0 3.68 0 3 C-0.66 2.67 -1.32 2.34 -2 2 C-1.34 2 -0.68 2 0 2 C0 1.34 0 0.68 0 0 Z " fill="#E2F4EC" transform="translate(125,50)"/>
<path d="M0 0 C-0.99 0.33 -1.98 0.66 -3 1 C-3.33 1.66 -3.66 2.32 -4 3 C-6.31 2.67 -8.62 2.34 -11 2 C-7.00042393 -0.06874624 -4.43559483 -1.37656391 0 0 Z " fill="#CD4C4D" transform="translate(168,151)"/>
<path d="M0 0 C1.32 0.33 2.64 0.66 4 1 C3.67 1.66 3.34 2.32 3 3 C0.6859378 3.73075648 -1.64828869 4.40138258 -4 5 C-2.68 3.35 -1.36 1.7 0 0 Z " fill="#191919" transform="translate(83,68)"/>
</svg>
